<svg width="63" height="70" viewBox="0 0 63 70" fill="none" xmlns="http://www.w3.org/2000/svg">
<circle cx="31.5" cy="34.5" r="31.5" fill="black"/>
<path d="M35.2422 16.875L34.4688 40.5703H28.8438L28.0469 16.875H35.2422ZM27.8594 47.9062C27.8594 46.9062 28.2031 46.0781 28.8906 45.4219C29.5938 44.75 30.5156 44.4141 31.6562 44.4141C32.8125 44.4141 33.7344 44.75 34.4219 45.4219C35.1094 46.0781 35.4531 46.9062 35.4531 47.9062C35.4531 48.875 35.1094 49.6953 34.4219 50.3672C33.7344 51.0391 32.8125 51.375 31.6562 51.375C30.5156 51.375 29.5938 51.0391 28.8906 50.3672C28.2031 49.6953 27.8594 48.875 27.8594 47.9062Z" fill="white"/>
</svg>
